# xmcd
#
# Track frame offsets:
#	150
#	16915
#	33874
#	51435
#	66986
#	83734
#	97755
#	119369
#	133103
#	147284
#	164071
#	180382
#	192451
#	206652
#	222896
#
# Disc length: 3375 seconds
#
# Revision: 0
# Processed by: cddbd v1.5.2PL0 Copyright (c) Steve Scherf et al.
# Submitted via: audiograbber 1.83.01
#
DISCID=d80d2d0f
DTITLE=Various Artist - Mud Digger Vol. 2 (Limited Edition)
DYEAR=2011
DGENRE=Country
TTITLE0=Lenny Cooper And Demun Jones - Mud Digger
TTITLE1=Colt Ford - Mud Slingers
TTITLE2=The Lacs and Ira Dean - Kickin Up Mud (Remix)
TTITLE3=Corey Smith - Backroad
TTITLE4=Ira Dean - Beer Or Gasoline
TTITLE5=One Night Rodeo - Big Truck  (Remix)
TTITLE6=Colt Ford, Bubba Sparxxx, Danny Boone Of Rehab, The Lacs and Demun Jones 
TTITLE6=/ This Is Our Song (Remix)
TTITLE7=Sunny Ledurd - Trainwreck
TTITLE8=JB and The Moonshine Band - I'm Down
TTITLE9=Rich O'Toole - Marijuana and Jalapenos
TTITLE10=Colt Ford and The Lacs - Cricket On A Line (Remix)
TTITLE11=Danny Boone Of Rehab - Come Here Girl
TTITLE12=Her And Kings County - Deep In The Country
TTITLE13=JJ Lawhorn - Sittin' On A Tailgate
TTITLE14=Colt Ford and Brantley Gilbert - Dirt Road Anthem (Live)
EXTD=
EXTT0=
EXTT1=
EXTT2=
EXTT3=
EXTT4=
EXTT5=
EXTT6=
EXTT7=
EXTT8=
EXTT9=
EXTT10=
EXTT11=
EXTT12=
EXTT13=
EXTT14=
PLAYORDER=
